<svg width="34" height="34" viewBox="0 0 34 34" fill="none" xmlns="http://www.w3.org/2000/svg">
<g clip-path="url(#clip0)">
<path d="M25.5 13.6L27.9537 6.732L27.234 5.93867L23.8 6.8L23.375 3.38867L22.3097 2.924L19.2667 5.1L17.7877 2.51033H16.2123L14.7333 5.1L11.6903 2.924L10.625 3.38867L10.2 6.8L6.76599 5.93867L6.04633 6.732L8.49999 13.6L17 14.1667L25.5 13.6Z" fill="#E4C100"/>
<path d="M5.66672 6.8C6.29264 6.8 6.80006 6.29259 6.80006 5.66666C6.80006 5.04074 6.29264 4.53333 5.66672 4.53333C5.0408 4.53333 4.53339 5.04074 4.53339 5.66666C4.53339 6.29259 5.0408 6.8 5.66672 6.8Z" fill="#E4C100"/>
<path d="M10.7667 3.39999C11.3926 3.39999 11.9 2.89258 11.9 2.26666C11.9 1.64074 11.3926 1.13333 10.7667 1.13333C10.1408 1.13333 9.63336 1.64074 9.63336 2.26666C9.63336 2.89258 10.1408 3.39999 10.7667 3.39999Z" fill="#E4C100"/>
<path d="M28.3333 6.8C28.9593 6.8 29.4667 6.29259 29.4667 5.66666C29.4667 5.04074 28.9593 4.53333 28.3333 4.53333C27.7074 4.53333 27.2 5.04074 27.2 5.66666C27.2 6.29259 27.7074 6.8 28.3333 6.8Z" fill="#E4C100"/>
<path d="M23.2334 3.39999C23.8593 3.39999 24.3667 2.89258 24.3667 2.26666C24.3667 1.64074 23.8593 1.13333 23.2334 1.13333C22.6074 1.13333 22.1 1.64074 22.1 2.26666C22.1 2.89258 22.6074 3.39999 23.2334 3.39999Z" fill="#E4C100"/>
<path d="M17 2.83333C17.6259 2.83333 18.1333 2.32592 18.1333 1.7C18.1333 1.07407 17.6259 0.566664 17 0.566664C16.374 0.566664 15.8666 1.07407 15.8666 1.7C15.8666 2.32592 16.374 2.83333 17 2.83333Z" fill="#E4C100"/>
<path d="M17 33.4333C23.5722 33.4333 28.9 28.1055 28.9 21.5333C28.9 14.9611 23.5722 9.63333 17 9.63333C10.4278 9.63333 5.09998 14.9611 5.09998 21.5333C5.09998 28.1055 10.4278 33.4333 17 33.4333Z" fill="#E4C100"/>
<path d="M17 31.1667C22.3203 31.1667 26.6333 26.8537 26.6333 21.5333C26.6333 16.213 22.3203 11.9 17 11.9C11.6796 11.9 7.36664 16.213 7.36664 21.5333C7.36664 26.8537 11.6796 31.1667 17 31.1667Z" fill="#FFD788"/>
<path d="M20.4 25.5V26.6333C20.4 26.7836 20.3403 26.9278 20.234 27.034C20.1278 27.1403 19.9836 27.2 19.8333 27.2H14.1667C14.0164 27.2 13.8723 27.1403 13.766 27.034C13.6597 26.9278 13.6 26.7836 13.6 26.6333V25.5C13.6 25.3497 13.6597 25.2056 13.766 25.0993C13.8723 24.993 14.0164 24.9333 14.1667 24.9333H15.8667V18.6603L15.198 19.193C15.0794 19.2869 14.9285 19.3302 14.7781 19.3134C14.6277 19.2967 14.4901 19.2212 14.395 19.1035L13.6907 18.224C13.598 18.1055 13.5555 17.9554 13.5725 17.8059C13.5895 17.6565 13.6645 17.5197 13.7813 17.425L16.2803 15.4247C16.3795 15.3437 16.5037 15.2997 16.6317 15.3H17.5667C17.717 15.3 17.8611 15.3597 17.9674 15.466C18.0736 15.5722 18.1333 15.7164 18.1333 15.8667V24.9333H19.8333C19.9836 24.9333 20.1278 24.993 20.234 25.0993C20.3403 25.2056 20.4 25.3497 20.4 25.5Z" fill="#E4C100"/>
<path d="M7.34965 5.50119C7.31684 5.17442 7.18986 4.86421 6.98414 4.60821C6.77842 4.35222 6.5028 4.16146 6.19074 4.05909C5.87869 3.95673 5.54363 3.94716 5.22625 4.03156C4.90886 4.11595 4.62281 4.29068 4.40282 4.53452C4.18283 4.77837 4.03836 5.08083 3.98696 5.4052C3.93557 5.72957 3.97945 6.06188 4.11328 6.36178C4.24711 6.66169 4.46514 6.91629 4.74089 7.09467C5.01663 7.27305 5.33824 7.36754 5.66665 7.36666H5.67118L7.75085 13.1846C6.26026 14.8395 5.24052 16.8637 4.79782 19.0464C4.35512 21.2292 4.50563 23.4907 5.23368 25.5955C5.96174 27.7004 7.24071 29.5716 8.93746 31.0143C10.6342 32.457 12.6867 33.4185 14.8812 33.7987C17.0757 34.1789 19.332 33.9639 21.4152 33.176C23.4984 32.3882 25.3323 31.0563 26.726 29.319C28.1197 27.5818 29.0222 25.5027 29.3395 23.2982C29.6569 21.0937 29.3775 18.8445 28.5305 16.7847C28.4733 16.6456 28.3631 16.5351 28.2243 16.4773C28.1556 16.4486 28.0819 16.4338 28.0075 16.4337C27.933 16.4335 27.8593 16.448 27.7905 16.4764C27.7216 16.5047 27.659 16.5464 27.6063 16.5989C27.5535 16.6514 27.5117 16.7139 27.483 16.7826C27.4252 16.9214 27.4249 17.0774 27.4822 17.2165C28.6011 19.9254 28.6285 22.9623 27.5587 25.691C26.4888 28.4197 24.4047 30.6287 21.7427 31.8553C19.0808 33.0819 16.0475 33.2309 13.2781 32.2713C10.5087 31.3117 8.21798 29.3177 6.88569 26.7071C5.5534 24.0964 5.28288 21.0715 6.13077 18.2659C6.97865 15.4603 8.87919 13.0915 11.4344 11.6556C13.9895 10.2198 17.0011 9.82828 19.8385 10.5631C22.6759 11.2978 25.1189 13.1019 26.656 15.5975C26.6928 15.6651 26.743 15.7245 26.8035 15.7721C26.864 15.8197 26.9336 15.8545 27.008 15.8743C27.0825 15.8941 27.1601 15.8985 27.2363 15.8873C27.3125 15.876 27.3856 15.8494 27.4511 15.809C27.5166 15.7686 27.5733 15.7153 27.6175 15.6523C27.6617 15.5892 27.6927 15.5179 27.7084 15.4425C27.7242 15.3671 27.7244 15.2893 27.7091 15.2139C27.6937 15.1384 27.6632 15.0669 27.6193 15.0036C27.2188 14.3547 26.7606 13.7433 26.2503 13.1767L28.3288 7.36666H28.3333C28.6629 7.36839 28.9858 7.2743 29.2629 7.09583C29.5399 6.91736 29.7591 6.66222 29.8938 6.36145C30.0285 6.06067 30.0728 5.72723 30.0215 5.40171C29.9701 5.07618 29.8252 4.77261 29.6045 4.52792C29.3837 4.28323 29.0966 4.10798 28.7781 4.02349C28.4595 3.93901 28.1233 3.94893 27.8103 4.05205C27.4973 4.15518 27.221 4.34705 27.0151 4.60433C26.8091 4.86161 26.6824 5.1732 26.6503 5.50119L24.2834 6.09449L23.9943 3.77853C24.2639 3.64246 24.4923 3.43692 24.6559 3.1831C24.8195 2.92929 24.9124 2.63641 24.925 2.3347C24.9376 2.03298 24.8695 1.73338 24.7276 1.4668C24.5857 1.20023 24.3753 0.976357 24.118 0.818292C23.8607 0.660226 23.5659 0.573698 23.2639 0.567642C22.962 0.561585 22.664 0.63622 22.4005 0.78384C22.1371 0.931459 21.9178 1.14671 21.7654 1.40738C21.6129 1.66805 21.5328 1.96468 21.5333 2.26666C21.5356 2.424 21.56 2.58023 21.6058 2.73076L19.4474 4.27379L18.4631 2.54999C18.6164 2.29284 18.6982 1.99938 18.7 1.69999C18.7 1.24912 18.5209 0.816723 18.2021 0.497911C17.8833 0.179099 17.4508 -7.62939e-06 17 -7.62939e-06C16.5491 -7.62939e-06 16.1167 0.179099 15.7979 0.497911C15.4791 0.816723 15.3 1.24912 15.3 1.69999C15.3017 1.99938 15.3835 2.29284 15.5368 2.54999L14.5525 4.27379L12.3941 2.73076C12.44 2.58023 12.4644 2.424 12.4666 2.26666C12.4681 1.96362 12.3886 1.66569 12.2362 1.40372C12.0838 1.14176 11.8642 0.925286 11.6001 0.776714C11.336 0.628143 11.0369 0.552877 10.7339 0.55871C10.431 0.564543 10.135 0.651262 9.87682 0.809889C9.6186 0.968516 9.40749 1.19328 9.26533 1.46092C9.12317 1.72855 9.05513 2.02932 9.06827 2.33208C9.0814 2.63484 9.17523 2.92859 9.34004 3.1829C9.50484 3.43722 9.73463 3.64286 10.0056 3.77853L9.71661 6.09449L7.34965 5.50119ZM5.09998 5.66666C5.09998 5.55458 5.13322 5.44502 5.19548 5.35184C5.25775 5.25865 5.34625 5.18602 5.44979 5.14313C5.55334 5.10024 5.66728 5.08902 5.7772 5.11088C5.88712 5.13275 5.98809 5.18671 6.06734 5.26596C6.14659 5.34521 6.20056 5.44618 6.22243 5.55611C6.24429 5.66603 6.23307 5.77997 6.19018 5.88351C6.14729 5.98706 6.07466 6.07556 5.98147 6.13782C5.88828 6.20009 5.77872 6.23333 5.66665 6.23333C5.51636 6.23333 5.37222 6.17362 5.26595 6.06735C5.15968 5.96108 5.09998 5.81695 5.09998 5.66666ZM28.3333 5.09999C28.4454 5.09999 28.555 5.13323 28.6481 5.19549C28.7413 5.25776 28.814 5.34626 28.8568 5.4498C28.8997 5.55335 28.911 5.66729 28.8891 5.77721C28.8672 5.88713 28.8133 5.9881 28.734 6.06735C28.6548 6.1466 28.5538 6.20057 28.4439 6.22244C28.3339 6.2443 28.22 6.23308 28.1165 6.19019C28.0129 6.1473 27.9244 6.07467 27.8622 5.98148C27.7999 5.88829 27.7667 5.77873 27.7667 5.66666C27.7667 5.51637 27.8264 5.37224 27.9326 5.26596C28.0389 5.15969 28.183 5.09999 28.3333 5.09999ZM23.2333 1.69999C23.3454 1.69999 23.455 1.73323 23.5481 1.79549C23.6413 1.85776 23.714 1.94626 23.7568 2.0498C23.7997 2.15335 23.811 2.26729 23.7891 2.37721C23.7672 2.48713 23.7133 2.5881 23.634 2.66735C23.5548 2.7466 23.4538 2.80057 23.3439 2.82244C23.2339 2.8443 23.12 2.83308 23.0165 2.79019C22.9129 2.7473 22.8244 2.67467 22.7622 2.58148C22.6999 2.48829 22.6666 2.37873 22.6666 2.26666C22.6666 2.11637 22.7264 1.97224 22.8326 1.86596C22.9389 1.75969 23.083 1.69999 23.2333 1.69999ZM17 1.13333C17.1121 1.13333 17.2216 1.16656 17.3148 1.22883C17.408 1.29109 17.4806 1.37959 17.5235 1.48314C17.5664 1.58668 17.5776 1.70062 17.5558 1.81054C17.5339 1.92047 17.4799 2.02144 17.4007 2.10069C17.3214 2.17994 17.2205 2.23391 17.1105 2.25577C17.0006 2.27764 16.8867 2.26641 16.7831 2.22352C16.6796 2.18063 16.5911 2.108 16.5288 2.01482C16.4665 1.92163 16.4333 1.81207 16.4333 1.69999C16.4333 1.5497 16.493 1.40557 16.5993 1.2993C16.7056 1.19303 16.8497 1.13333 17 1.13333ZM14.7333 5.66666C14.7741 5.66653 14.8147 5.66216 14.8546 5.65363C14.932 5.63663 15.005 5.60359 15.0688 5.55664C15.1326 5.50969 15.1859 5.44988 15.2252 5.38106L16.4191 3.29119C16.7928 3.43626 17.2072 3.43626 17.5808 3.29119L18.7748 5.38333C18.8141 5.45214 18.8673 5.51196 18.9312 5.55891C18.995 5.60586 19.068 5.6389 19.1454 5.65589C19.1853 5.66367 19.226 5.66727 19.2666 5.66666C19.3849 5.66663 19.5003 5.62957 19.5964 5.56069L22.2598 3.65669C22.4436 3.78601 22.6512 3.8775 22.8707 3.92586L23.2378 6.87253C23.2478 6.95208 23.2745 7.02862 23.3162 7.09709C23.358 7.16556 23.4137 7.22439 23.4799 7.2697C23.546 7.31501 23.621 7.34577 23.7 7.35995C23.7789 7.37412 23.8599 7.37139 23.9377 7.35192L26.9167 6.60279C27.0128 6.74451 27.1299 6.87081 27.264 6.97736L25.3657 12.2887C23.0736 10.2137 20.0918 9.06529 17 9.06665C13.9082 9.06801 10.9274 10.2191 8.63711 12.2961L6.73595 6.97736C6.87003 6.87081 6.98716 6.74451 7.08331 6.60279L10.0623 7.34966C10.1401 7.36912 10.2211 7.37185 10.3 7.35768C10.3789 7.34351 10.4539 7.31275 10.5201 7.26744C10.5862 7.22212 10.642 7.16329 10.6837 7.09482C10.7254 7.02636 10.7522 6.94982 10.7621 6.87026L11.1293 3.92359C11.3488 3.87524 11.5564 3.78374 11.7402 3.65443L14.4035 5.55843C14.4994 5.62811 14.6148 5.66597 14.7333 5.66666V5.66666ZM10.7666 1.69999C10.8787 1.69999 10.9883 1.73323 11.0815 1.79549C11.1747 1.85776 11.2473 1.94626 11.2902 2.0498C11.3331 2.15335 11.3443 2.26729 11.3224 2.37721C11.3006 2.48713 11.2466 2.5881 11.1673 2.66735C11.0881 2.7466 10.9871 2.80057 10.8772 2.82244C10.7673 2.8443 10.6533 2.83308 10.5498 2.79019C10.4462 2.7473 10.3577 2.67467 10.2955 2.58148C10.2332 2.48829 10.2 2.37873 10.2 2.26666C10.2 2.11637 10.2597 1.97224 10.366 1.86596C10.4722 1.75969 10.6164 1.69999 10.7666 1.69999Z" fill="#BF8C0A"/>
<path d="M17.0001 11.3333C14.9827 11.3333 13.0106 11.9316 11.3332 13.0523C9.65586 14.1731 8.3485 15.7662 7.57648 17.63C6.80447 19.4938 6.60247 21.5446 6.99604 23.5233C7.38961 25.5019 8.36107 27.3193 9.78756 28.7458C11.2141 30.1723 13.0315 31.1438 15.0101 31.5373C16.9887 31.9309 19.0396 31.7289 20.9034 30.9569C22.7672 30.1849 24.3603 28.8775 25.481 27.2001C26.6018 25.5228 27.2001 23.5507 27.2001 21.5333C27.1969 18.8291 26.1213 16.2365 24.2091 14.3243C22.2969 12.4121 19.7043 11.3365 17.0001 11.3333V11.3333ZM17.0001 30.6C15.2068 30.6 13.4539 30.0682 11.9629 29.072C10.4719 28.0757 9.30978 26.6597 8.62355 25.003C7.93731 23.3463 7.75776 21.5233 8.1076 19.7645C8.45744 18.0058 9.32096 16.3902 10.589 15.1222C11.8569 13.8542 13.4725 12.9907 15.2312 12.6409C16.99 12.291 18.813 12.4706 20.4697 13.1568C22.1264 13.8431 23.5425 15.0052 24.5387 16.4962C25.535 17.9872 26.0667 19.7401 26.0667 21.5333C26.0639 23.9371 25.1077 26.2416 23.408 27.9413C21.7083 29.641 19.4038 30.5971 17.0001 30.6Z" fill="#BF8C0A"/>
<path d="M19.8334 24.3667H18.7001V15.8667C18.7001 15.5661 18.5807 15.2778 18.3681 15.0653C18.1556 14.8527 17.8673 14.7333 17.5667 14.7333H16.6317C16.375 14.7328 16.1259 14.8207 15.9262 14.9821L13.4244 16.9853C13.1922 17.1748 13.0437 17.4479 13.0109 17.7458C12.978 18.0437 13.0634 18.3426 13.2487 18.5782L13.9531 19.4576C14.1102 19.653 14.3272 19.7912 14.5706 19.8509C14.8141 19.9106 15.0704 19.8885 15.3001 19.788V24.3667H14.1667C13.8662 24.3667 13.5779 24.4861 13.3653 24.6986C13.1528 24.9111 13.0334 25.1994 13.0334 25.5V26.6333C13.0334 26.9339 13.1528 27.2222 13.3653 27.4347C13.5779 27.6473 13.8662 27.7667 14.1667 27.7667H19.8334C20.134 27.7667 20.4223 27.6473 20.6348 27.4347C20.8473 27.2222 20.9667 26.9339 20.9667 26.6333V25.5C20.9667 25.1994 20.8473 24.9111 20.6348 24.6986C20.4223 24.4861 20.134 24.3667 19.8334 24.3667V24.3667ZM19.8334 26.6333H14.1667V25.5H15.8667C16.017 25.5 16.1612 25.4403 16.2674 25.334C16.3737 25.2278 16.4334 25.0836 16.4334 24.9333V18.6603C16.4335 18.5537 16.4035 18.4491 16.3468 18.3588C16.2901 18.2684 16.209 18.1959 16.113 18.1495C16.0169 18.1032 15.9097 18.0849 15.8037 18.0967C15.6977 18.1086 15.5971 18.1502 15.5137 18.2166L14.8377 18.7493L14.1356 17.867L16.6317 15.8667H17.5667V24.9333C17.5667 25.0836 17.6264 25.2278 17.7327 25.334C17.839 25.4403 17.9831 25.5 18.1334 25.5H19.8334V26.6333Z" fill="#AF8007"/>
</g>
<defs>
<clipPath id="clip0">
<rect width="34" height="34" fill="white"/>
</clipPath>
</defs>
</svg>
