<svg width="30" height="30" viewBox="0 0 30 30" fill="none" xmlns="http://www.w3.org/2000/svg">
<path d="M14.9904 29.3334C22.9031 29.3334 29.3177 23.0653 29.3177 15.3334C29.3177 7.60136 22.9031 1.33334 14.9904 1.33334C7.07763 1.33334 0.663086 7.60136 0.663086 15.3334C0.663086 23.0653 7.07763 29.3334 14.9904 29.3334Z" fill="#CD7F32"/>
<path d="M14.9904 26.6667C21.3959 26.6667 26.5887 21.5926 26.5887 15.3333C26.5887 9.07411 21.3959 4 14.9904 4C8.58482 4 3.39209 9.07411 3.39209 15.3333C3.39209 21.5926 8.58482 26.6667 14.9904 26.6667Z" fill="#E8AF82"/>
<path d="M14.9905 3.33334C12.5616 3.33334 10.1873 4.03713 8.1678 5.35571C6.14828 6.67428 4.57425 8.54843 3.64477 10.7411C2.71528 12.9339 2.47209 15.3467 2.94593 17.6744C3.41978 20.0022 4.58939 22.1404 6.30685 23.8186C8.02432 25.4968 10.2125 26.6397 12.5947 27.1028C14.9769 27.5658 17.4461 27.3281 19.6901 26.4199C21.934 25.5116 23.852 23.9736 25.2014 22.0002C26.5508 20.0268 27.271 17.7067 27.271 15.3333C27.2672 12.1519 25.9722 9.10179 23.67 6.85215C21.3677 4.60252 18.2463 3.33705 14.9905 3.33334V3.33334ZM14.9905 26C12.8315 26 10.721 25.3744 8.92588 24.2023C7.13075 23.0303 5.73161 21.3644 4.9054 19.4153C4.0792 17.4662 3.86302 15.3215 4.28422 13.2524C4.70542 11.1832 5.74507 9.28263 7.2717 7.79087C8.79834 6.29911 10.7434 5.28321 12.8609 4.87163C14.9784 4.46006 17.1732 4.67129 19.1679 5.47863C21.1625 6.28596 22.8674 7.65313 24.0668 9.40726C25.2663 11.1614 25.9065 13.2237 25.9065 15.3333C25.9031 18.1613 24.7519 20.8724 22.7055 22.8721C20.6591 24.8718 17.8846 25.9966 14.9905 26Z" fill="#92571D"/>
<path d="M12.2995 19.0277C12.1719 18.9273 12.0035 18.8951 11.8479 18.9413C11.6923 18.9876 11.5688 19.1065 11.5168 19.2603L11.2221 20.1304C11.1593 20.3161 11.2108 20.5215 11.3538 20.6556C11.8095 21.0826 12.3805 21.4003 13.0501 21.6193L13.0501 21.6194L13.0606 21.6226C13.7315 21.8259 14.4064 21.9286 15.0837 21.9286C16.3103 21.9286 17.3641 21.5868 18.2058 20.8728L18.2061 20.8727C19.0723 20.137 19.5056 19.1639 19.5056 17.9983C19.5056 17.2586 19.3592 16.5991 19.0376 16.0448C18.8375 15.6999 18.5766 15.4081 18.261 15.1686C18.9205 14.522 19.2846 13.7577 19.2846 12.8781C19.2846 11.8353 18.8932 10.9795 18.0962 10.3741C17.3413 9.78031 16.4046 9.5 15.323 9.5C14.2734 9.5 13.2598 9.67095 12.2849 10.0135C12.0329 10.1021 11.895 10.3731 11.9718 10.629L12.248 11.5493C12.2863 11.6769 12.3739 11.784 12.4914 11.8467C12.609 11.9094 12.7467 11.9226 12.8741 11.8834C13.5528 11.6743 14.2275 11.5709 14.8996 11.5709C15.5683 11.5709 16.0553 11.7128 16.4023 11.9514C16.7126 12.1648 16.8669 12.4524 16.8669 12.8781C16.8669 13.4799 16.6266 13.9752 16.0874 14.3867C15.8179 14.3636 15.5198 14.3525 15.1942 14.3525C14.7763 14.3525 14.2473 14.3879 13.6127 14.4558C13.3586 14.4829 13.1659 14.6974 13.1659 14.9529V15.8732C13.1659 16.1494 13.3898 16.3732 13.6659 16.3732H14.8443C15.6263 16.3732 16.1796 16.5385 16.5573 16.8131L16.5572 16.8132L16.5634 16.8175C16.8908 17.0481 17.0878 17.4167 17.0878 18.0318C17.0878 18.636 16.8841 19.0674 16.4969 19.3858C16.1157 19.6982 15.5218 19.8911 14.6418 19.8911C13.8208 19.8911 13.0438 19.6132 12.2995 19.0277Z" fill="#CD7F32" stroke="#704113" stroke-linejoin="round"/>
</svg>
