<svg width="30" height="30" viewBox="0 0 30 30" fill="none" xmlns="http://www.w3.org/2000/svg">
<path d="M14.9904 29.3333C22.9031 29.3333 29.3177 23.0653 29.3177 15.3333C29.3177 7.60134 22.9031 1.33333 14.9904 1.33333C7.07763 1.33333 0.663086 7.60134 0.663086 15.3333C0.663086 23.0653 7.07763 29.3333 14.9904 29.3333Z" fill="#BABEC8"/>
<path d="M14.9904 26.6667C21.3959 26.6667 26.5887 21.5926 26.5887 15.3333C26.5887 9.07411 21.3959 4 14.9904 4C8.58482 4 3.39209 9.07411 3.39209 15.3333C3.39209 21.5926 8.58482 26.6667 14.9904 26.6667Z" fill="#D8DBDD"/>
<path d="M14.9905 3.33333C12.5616 3.33333 10.1873 4.03712 8.1678 5.35569C6.14828 6.67427 4.57425 8.54841 3.64477 10.7411C2.71528 12.9338 2.47209 15.3466 2.94593 17.6744C3.41978 20.0022 4.58939 22.1404 6.30685 23.8186C8.02432 25.4968 10.2125 26.6397 12.5947 27.1027C14.9769 27.5658 17.4461 27.3281 19.6901 26.4199C21.934 25.5116 23.852 23.9736 25.2014 22.0002C26.5508 20.0268 27.271 17.7067 27.271 15.3333C27.2672 12.1519 25.9722 9.10177 23.67 6.85214C21.3677 4.60251 18.2463 3.33703 14.9905 3.33333V3.33333ZM14.9905 26C12.8315 26 10.721 25.3744 8.92588 24.2023C7.13075 23.0303 5.73161 21.3644 4.9054 19.4153C4.0792 17.4662 3.86302 15.3215 4.28422 13.2524C4.70542 11.1832 5.74507 9.28261 7.2717 7.79085C8.79834 6.29909 10.7434 5.28319 12.8609 4.87162C14.9784 4.46004 17.1732 4.67128 19.1679 5.47861C21.1625 6.28595 22.8674 7.65312 24.0668 9.40724C25.2663 11.1614 25.9065 13.2237 25.9065 15.3333C25.9031 18.1613 24.7519 20.8724 22.7055 22.8721C20.6591 24.8718 17.8846 25.9966 14.9905 26Z" fill="#73767C"/>
<path d="M11.5665 20C11.5665 20.2761 11.7904 20.5 12.0665 20.5H17.9144C18.0523 20.5 18.184 20.4431 18.2785 20.3427C18.373 20.2423 18.4218 20.1074 18.4135 19.9698L18.3557 19.016C18.3396 18.7499 18.1176 18.5433 17.8511 18.5462L14.9927 18.5781C15.8979 17.5557 16.6133 16.6039 17.1323 15.7233C17.7909 14.6057 18.1545 13.567 18.1545 12.623C18.1545 11.6524 17.8527 10.8428 17.1808 10.2869C16.5447 9.7506 15.7453 9.5 14.8244 9.5C13.9373 9.5 13.099 9.65465 12.3144 9.96781C12.0796 10.0615 11.9517 10.3156 12.0163 10.5599L12.2329 11.3796C12.2683 11.5135 12.3576 11.6267 12.4796 11.6923C12.6016 11.7579 12.7454 11.7699 12.8766 11.7255C13.4125 11.5441 13.96 11.4538 14.5212 11.4538C15.081 11.4538 15.4525 11.5743 15.6932 11.7556L15.7056 11.7646C15.9141 11.9118 16.0427 12.1367 16.0427 12.5335C16.0427 12.9647 15.9111 13.5137 15.6092 14.1935L15.6092 14.1935L15.607 14.1987C15.5069 14.4311 15.3403 14.7329 15.0975 15.1087C14.8492 15.4932 14.6471 15.7937 14.4901 16.0129L14.4901 16.0129L14.4879 16.016C14.3481 16.2145 13.9873 16.6644 13.3875 17.3833C12.797 18.0812 12.237 18.7031 11.7074 19.2497C11.6171 19.343 11.5665 19.4677 11.5665 19.5976V20Z" fill="#BABEC8" stroke="#5A5D62" stroke-linejoin="round"/>
</svg>
